<svg xmlns="http://www.w3.org/2000/svg" width="600" height="400">
<rect x="20" y="20" width="160" height="80" fill="#f9f9f9" stroke="#333"/>
<text x="30" y="40" font-size="12">Customer</text>
<text x="30" y="60" font-size="10">id (PK)</text>
<text x="30" y="75" font-size="10">name</text>

<rect x="220" y="20" width="160" height="80" fill="#f9f9f9" stroke="#333"/>
<text x="230" y="40" font-size="12">Order</text>
<text x="230" y="60" font-size="10">id (PK)</text>
<text x="230" y="75" font-size="10">customerId (FK)</text>

<rect x="420" y="20" width="160" height="80" fill="#f9f9f9" stroke="#333"/>
<text x="430" y="40" font-size="12">Orderline</text>
<text x="430" y="60" font-size="10">id (PK)</text>
<text x="430" y="75" font-size="10">orderId (FK)</text>

<rect x="220" y="150" width="160" height="80" fill="#f9f9f9" stroke="#333"/>
<text x="230" y="170" font-size="12">Product</text>
<text x="230" y="190" font-size="10">id (PK)</text>
<text x="230" y="205" font-size="10">price</text>

<line x1="180" y1="60" x2="220" y2="60" stroke="#333" marker-end="url(#arrow)"/>
<line x1="380" y1="60" x2="420" y2="60" stroke="#333" marker-end="url(#arrow)"/>
<line x1="300" y1="100" x2="300" y2="150" stroke="#333" marker-end="url(#arrow)"/>

<defs>
  <marker id="arrow" markerWidth="10" markerHeight="10" refX="6" refY="3" orient="auto" markerUnits="strokeWidth">
    <path d="M0,0 L0,6 L9,3 z" fill="#333"/>
  </marker>
</defs>
</svg>